<svg width="100" height="100" viewBox="0 0 100 100" fill="none" xmlns="http://www.w3.org/2000/svg">
<path fill-rule="evenodd" clip-rule="evenodd" d="M50 100C77.6142 100 100 77.6147 100 50.0005C100 22.3863 77.6142 0.000488281 50 0.000488281C22.3858 0.000488281 0 22.3863 0 50.0005C0 77.6147 22.3858 100 50 100ZM36.7426 68.8363C35.1205 68.8363 33.802 67.5147 33.802 65.8956V38.5434H67.3498V65.8887C67.3498 67.5078 66.0314 68.8294 64.4092 68.8294H61.0475V77.1603C61.0475 79.2776 59.3632 80.9936 57.2786 80.9936C55.2008 80.9936 53.5096 79.2707 53.5096 77.1603V68.8294H47.6422V77.1672C47.6422 79.2845 45.9579 81.0005 43.8733 81.0005C41.7955 81.0005 40.1043 79.2776 40.1043 77.1672V68.8363H36.7426ZM61.5514 19.8751L58.4521 24.3727C63.3738 26.6699 66.8321 31.0221 67.2877 36.1148H33.7399C34.1817 31.0291 37.6331 26.6768 42.5617 24.3796L39.4624 19.882C39.2829 19.6052 39.3243 19.2593 39.5659 19.0932C39.8075 18.9202 40.1526 19.0102 40.3321 19.2731L43.5488 23.9437C45.668 23.1064 48.0288 22.6428 50.5069 22.6428C52.985 22.6428 55.3458 23.1064 57.465 23.9437L60.6817 19.2662C60.8611 19.0032 61.2063 18.9202 61.4479 19.0863C61.6895 19.2593 61.7309 19.6121 61.5514 19.8751ZM42.393 31.1513C42.6983 31.3558 43.0573 31.465 43.4246 31.465C43.9167 31.4637 44.3882 31.2672 44.7362 30.9184C45.0841 30.5696 45.2802 30.0969 45.2814 29.6037C45.2814 29.2355 45.1725 28.8757 44.9685 28.5696C44.7645 28.2635 44.4745 28.0249 44.1352 27.8841C43.7959 27.7432 43.4225 27.7063 43.0623 27.7781C42.7021 27.85 42.3713 28.0272 42.1116 28.2875C41.8519 28.5478 41.675 28.8795 41.6034 29.2405C41.5317 29.6016 41.5685 29.9758 41.7091 30.316C41.8496 30.6561 42.0876 30.9468 42.393 31.1513ZM56.7785 31.1513C57.0838 31.3558 57.4428 31.465 57.8101 31.465C58.3022 31.4637 58.7737 31.2672 59.1217 30.9184C59.4696 30.5696 59.6657 30.0969 59.667 29.6037C59.667 29.2355 59.558 28.8757 59.354 28.5696C59.15 28.2635 58.86 28.0249 58.5207 27.8841C58.1814 27.7432 57.808 27.7063 57.4478 27.7781C57.0876 27.85 56.7568 28.0272 56.4971 28.2875C56.2374 28.5478 56.0606 28.8795 55.9889 29.2405C55.9173 29.6016 55.954 29.9758 56.0946 30.316C56.2351 30.6561 56.4731 30.9468 56.7785 31.1513ZM69.4621 42.2661C69.4621 40.1487 71.1464 38.4327 73.231 38.4327C75.3226 38.4327 77.0069 40.1418 77 42.2591V57.2395C77 59.3568 75.3157 61.0728 73.231 61.0728C71.1533 61.0728 69.4621 59.3499 69.4621 57.2395V42.2661ZM24 42.2661C24 40.1487 25.6843 38.4327 27.7689 38.4327C29.8467 38.4327 31.5379 40.1418 31.5379 42.2591V57.2395C31.5379 59.3568 29.8536 61.0728 27.7689 61.0728C25.6912 61.0728 24 59.3499 24 57.2395V42.2661Z" fill="white"/>
</svg>
