<svg width="100" height="100" viewBox="0 0 100 100" fill="none" xmlns="http://www.w3.org/2000/svg">
<path fill-rule="evenodd" clip-rule="evenodd" d="M50 100C77.6142 100 100 77.6147 100 50.0005C100 22.3863 77.6142 0.000488281 50 0.000488281C22.3858 0.000488281 0 22.3863 0 50.0005C0 77.6147 22.3858 100 50 100ZM25.4875 28.648C26.56 27.5931 28.0145 27.0005 29.5312 27.0005H71.4688C72.9855 27.0005 74.44 27.5931 75.5125 28.648C76.585 29.7029 77.1875 31.1336 77.1875 32.6255V64.5005H23.8125V32.6255C23.8125 31.1336 24.415 29.7029 25.4875 28.648ZM81 66.3755H20C20 67.8673 20.6025 69.2981 21.675 70.353C22.7475 71.4079 24.202 72.0005 25.7188 72.0005H75.2812C76.798 72.0005 78.2525 71.4079 79.325 70.353C80.3975 69.2981 81 67.8673 81 66.3755Z" fill="white"/>
</svg>
