<svg width="1580" height="1185" viewBox="0 0 1580 1185" fill="none" xmlns="http://www.w3.org/2000/svg">
<path d="M1182.72 464.793L1172.5 453.505M1172.5 453.505L1162.29 442.216M1172.5 453.505L1183.79 443.288M1172.5 453.505L1161.22 463.721" stroke="#D1DE35" stroke-opacity="0.5" stroke-width="6" stroke-linecap="round"/>
<path opacity="0.5" d="M182.858 757.178L164.451 800.552L210.379 812.938" stroke="white" stroke-opacity="0.27" stroke-width="11" stroke-linecap="round" stroke-linejoin="round"/>
<path d="M152.484 579.47L143.473 603.453L168.707 609.135" stroke="white" stroke-opacity="0.27" stroke-width="7" stroke-linecap="round" stroke-linejoin="round"/>
<path opacity="0.7" d="M1375.21 856.8L1435.99 844.48L1415.23 785.408" stroke="white" stroke-opacity="0.27" stroke-width="15" stroke-linecap="round" stroke-linejoin="round"/>
<path opacity="0.6" d="M1347.81 1047.47L1333.52 1022.83L1310.86 1040.54" stroke="white" stroke-opacity="0.4" stroke-width="8" stroke-linecap="round" stroke-linejoin="round"/>
<path d="M558.804 291.707L533.597 283.577L528.966 309.912" stroke="#D1DE35" stroke-opacity="0.47" stroke-width="8" stroke-linecap="round" stroke-linejoin="round"/>
<path d="M1124.34 342.382L1130.44 291.79L1079.01 292.714" stroke="#D1DE35" stroke-opacity="0.15" stroke-width="12" stroke-linecap="round" stroke-linejoin="round"/>
<path d="M1155.9 620.885L1121.8 583.199M1121.8 583.199L1087.69 545.514M1121.8 583.199L1159.48 549.093M1121.8 583.199L1084.11 617.306" stroke="#F3E565" stroke-opacity="0.6" stroke-width="14" stroke-linecap="round"/>
<path d="M321.878 366.945L296.476 338.877M296.476 338.877L271.073 310.809M296.476 338.877L324.544 313.475M296.476 338.877L268.408 364.28" stroke="#EAE359" stroke-width="12" stroke-linecap="round"/>
<path opacity="0.5" d="M589.171 824.349L562.708 795.11M562.708 795.11L536.245 765.87M562.708 795.11L591.948 768.647M562.708 795.11L533.468 821.573" stroke="#FAE66F" stroke-opacity="0.5" stroke-width="13" stroke-linecap="round"/>
<path d="M1339.73 559.2L1329.51 547.912M1329.51 547.912L1319.29 536.623M1329.51 547.912L1340.8 537.695M1329.51 547.912L1318.22 558.128" stroke="#D1DE35" stroke-opacity="0.3" stroke-width="6" stroke-linecap="round"/>
<path opacity="0.8" d="M1473.21 514.953L1484.35 485.747M1484.35 485.747L1495.48 456.542M1484.35 485.747L1513.55 496.882M1484.35 485.747L1455.14 474.613" stroke="#D1DE35" stroke-opacity="0.5" stroke-width="11" stroke-linecap="round"/>
<path opacity="0.8" d="M900.323 650.319L901.675 608.836L860.005 613.243" stroke="white" stroke-opacity="0.4" stroke-width="13" stroke-linecap="round" stroke-linejoin="round"/>
<path opacity="0.5" d="M634.622 544.273L552.166 517.515L529.812 601.024" stroke="white" stroke-opacity="0.2" stroke-width="17" stroke-linecap="round" stroke-linejoin="round"/>
<path opacity="0.7" d="M139.069 456.102L151.45 417.377L111.005 410.372" stroke="white" stroke-opacity="0.6" stroke-width="8" stroke-linecap="round" stroke-linejoin="round"/>
<path opacity="0.7" d="M407.564 429.224L414.779 447.528L432.081 437.771" stroke="white" stroke-opacity="0.6" stroke-width="8" stroke-linecap="round" stroke-linejoin="round"/>
<path d="M332.176 692.656L353.257 692.045L349.72 671.049" stroke="white" stroke-opacity="0.6" stroke-width="8" stroke-linecap="round" stroke-linejoin="round"/>
<path opacity="0.5" d="M946.024 853.399L1018.52 813.34L968.397 746.406" stroke="white" stroke-opacity="0.2" stroke-width="18" stroke-linecap="round" stroke-linejoin="round"/>
<path opacity="0.8" d="M710.575 736.013L749.719 725.025L733.297 687.407" stroke="white" stroke-opacity="0.4" stroke-width="13" stroke-linecap="round" stroke-linejoin="round"/>
<path opacity="0.6" d="M1273.2 840.063L1250.15 829.318L1242.6 853.864" stroke="white" stroke-opacity="0.4" stroke-width="8" stroke-linecap="round" stroke-linejoin="round"/>
</svg>
