<svg width="100" height="100" viewBox="0 0 100 100" fill="none" xmlns="http://www.w3.org/2000/svg">
<path fill-rule="evenodd" clip-rule="evenodd" d="M50 100C77.6142 100 100 77.6147 100 50.0005C100 22.3863 77.6142 0.000488281 50 0.000488281C22.3858 0.000488281 0 22.3863 0 50.0005C0 77.6147 22.3858 100 50 100ZM38.0759 41.059V43.3963H40.3794C40.9903 43.3963 41.5762 43.6425 42.0082 44.0808C42.4402 44.5192 42.6829 45.1136 42.6829 45.7335C42.6829 46.3534 42.4402 46.9479 42.0082 47.3862C41.5762 47.8245 40.9903 48.0708 40.3794 48.0708H38.0759V50.4081C38.0759 51.0279 37.8332 51.6224 37.4012 52.0608C36.9692 52.4991 36.3833 52.7453 35.7724 52.7453C35.1614 52.7453 34.5755 52.4991 34.1435 52.0608C33.7115 51.6224 33.4688 51.0279 33.4688 50.4081V48.0708H31.1653C30.5544 48.0708 29.9685 47.8245 29.5365 47.3862C29.1045 46.9479 28.8618 46.3534 28.8618 45.7335C28.8618 45.1136 29.1045 44.5192 29.5365 44.0808C29.9685 43.6425 30.5544 43.3963 31.1653 43.3963H33.4688V41.059C33.4688 40.4391 33.7115 39.8446 34.1435 39.4063C34.5755 38.968 35.1614 38.7217 35.7724 38.7217C36.3833 38.7217 36.9692 38.968 37.4012 39.4063C37.8332 39.8446 38.0759 40.4391 38.0759 41.059ZM55.7715 34.0472H43.4154C41.333 32.6448 38.9147 31.8416 36.418 31.7231C33.9214 31.6046 31.4397 32.1753 29.2374 33.3744C27.035 34.5735 25.1943 36.3561 23.9113 38.5325C22.6282 40.7089 21.9508 43.1975 21.9512 45.7335C21.9512 53.4792 28.1385 69.1062 35.7724 69.1062C40.3241 69.1062 44.3645 63.5482 46.8799 57.4199H52.307C54.8248 63.5482 58.8629 69.1062 63.4146 69.1062C71.0485 69.1062 77.2358 53.4792 77.2358 45.7335C77.2362 43.1975 76.5588 40.7089 75.2757 38.5325C73.9927 36.3561 72.152 34.5735 69.9496 33.3744C67.7472 32.1753 65.2656 31.6046 62.769 31.7231C60.2723 31.8416 57.854 32.6448 55.7715 34.0472ZM65.0435 42.7117C64.6115 43.15 64.0256 43.3963 63.4146 43.3963C62.8037 43.3963 62.2178 43.15 61.7858 42.7117C61.3538 42.2734 61.1111 41.6789 61.1111 41.059C61.1111 40.4391 61.3538 39.8446 61.7858 39.4063C62.2178 38.968 62.8037 38.7217 63.4146 38.7217C64.0256 38.7217 64.6115 38.968 65.0435 39.4063C65.4755 39.8446 65.7182 40.4391 65.7182 41.059C65.7182 41.6789 65.4755 42.2734 65.0435 42.7117ZM60.4364 47.3862C60.0044 47.8245 59.4185 48.0708 58.8076 48.0708C58.1967 48.0708 57.6107 47.8245 57.1787 47.3862C56.7468 46.9479 56.5041 46.3534 56.5041 45.7335C56.5041 45.1136 56.7468 44.5192 57.1787 44.0808C57.6107 43.6425 58.1967 43.3963 58.8076 43.3963C59.4185 43.3963 60.0044 43.6425 60.4364 44.0808C60.8684 44.5192 61.1111 45.1136 61.1111 45.7335C61.1111 46.3534 60.8684 46.9479 60.4364 47.3862ZM69.6505 47.3862C69.2185 47.8245 68.6326 48.0708 68.0217 48.0708C67.4108 48.0708 66.8248 47.8245 66.3928 47.3862C65.9608 46.9479 65.7182 46.3534 65.7182 45.7335C65.7182 45.1136 65.9608 44.5192 66.3928 44.0808C66.8248 43.6425 67.4108 43.3963 68.0217 43.3963C68.6326 43.3963 69.2185 43.6425 69.6505 44.0808C70.0825 44.5192 70.3252 45.1136 70.3252 45.7335C70.3252 46.3534 70.0825 46.9479 69.6505 47.3862ZM65.0435 52.0608C64.6115 52.4991 64.0256 52.7453 63.4146 52.7453C62.8037 52.7453 62.2178 52.4991 61.7858 52.0608C61.3538 51.6224 61.1111 51.0279 61.1111 50.4081C61.1111 49.7882 61.3538 49.1937 61.7858 48.7554C62.2178 48.317 62.8037 48.0708 63.4146 48.0708C64.0256 48.0708 64.6115 48.317 65.0435 48.7554C65.4755 49.1937 65.7182 49.7882 65.7182 50.4081C65.7182 51.0279 65.4755 51.6224 65.0435 52.0608Z" fill="white"/>
</svg>
