<svg width="375" height="447" viewBox="0 0 375 447" fill="none" xmlns="http://www.w3.org/2000/svg">
<path opacity="0.7" d="M279.618 60.9828L262.637 29.6458L233.657 50.9766" stroke="white" stroke-opacity="0.27" stroke-width="12" stroke-linecap="round" stroke-linejoin="round"/>
<path opacity="0.6" d="M389.009 44.017L377.868 56.0103L391.408 65.4863" stroke="white" stroke-opacity="0.4" stroke-width="8" stroke-linecap="round" stroke-linejoin="round"/>
<path d="M39.03 285.266L10.2004 290.412L19.3481 318.527" stroke="#D1DE35" stroke-opacity="0.25" stroke-width="8" stroke-linecap="round" stroke-linejoin="round"/>
<path d="M200.698 273.57L200.594 222.385L149.424 229.593" stroke="#D1DE35" stroke-opacity="0.63" stroke-width="8" stroke-linecap="round" stroke-linejoin="round"/>
<path d="M111.739 24.641L72.7719 14.2841L67.8244 54.6887" stroke="#D1DE35" stroke-opacity="0.4" stroke-width="8" stroke-linecap="round" stroke-linejoin="round"/>
<path d="M122.015 130.472L115.265 141.77M115.265 141.77L108.514 153.067M115.265 141.77L103.967 135.019M115.265 141.77L126.562 148.52" stroke="white" stroke-opacity="0.4" stroke-width="6" stroke-linecap="round"/>
<path opacity="0.8" d="M245.901 356.664L222.875 362.889L232.296 385.051" stroke="white" stroke-opacity="0.4" stroke-width="8" stroke-linecap="round" stroke-linejoin="round"/>
<path opacity="0.5" d="M349.839 297.435L315.646 264.32L287.278 303.11" stroke="white" stroke-opacity="0.2" stroke-width="18" stroke-linecap="round" stroke-linejoin="round"/>
<path opacity="0.8" d="M310.04 441.7L297.426 422.032L279.51 437.376" stroke="#D1DE35" stroke-opacity="0.3" stroke-width="10" stroke-linecap="round" stroke-linejoin="round"/>
<path opacity="0.8" d="M106.299 437.231L90.3442 401.881L57.2098 422.743" stroke="white" stroke-opacity="0.4" stroke-width="8" stroke-linecap="round" stroke-linejoin="round"/>
<path opacity="0.6" d="M287.553 119.857L285.52 134.332L300.278 134.356" stroke="white" stroke-opacity="0.4" stroke-width="8" stroke-linecap="round" stroke-linejoin="round"/>
</svg>
