<svg width="100" height="100" viewBox="0 0 100 100" fill="none" xmlns="http://www.w3.org/2000/svg">
<path fill-rule="evenodd" clip-rule="evenodd" d="M100 50.0005C100 77.6147 77.6143 100 50 100C22.3857 100 0 77.6147 0 50.0005C0 22.3862 22.3857 0.000488281 50 0.000488281C77.6143 0.000488281 100 22.3862 100 50.0005ZM37.0715 29.3577V36.072H30.3572V29.3577H37.0715ZM27 26.0005V39.429H40.4285V26.0005H27ZM53.8572 34.3933V41.1077H47.1428V34.3933H53.8572ZM43.7856 31.0361V44.4648H57.2144V31.0361H43.7856ZM37.0715 49.5005V56.2148H30.3572V49.5005H37.0715ZM27 46.1433V59.572H40.4285V73.0005H74V39.429H60.5715V49.5005H50.5V59.572H40.4285V46.1433H27ZM43.7856 62.929V69.6433H50.5V62.929H43.7856ZM53.8572 62.929V69.6433H60.5715V62.929H53.8572ZM60.5715 52.8577H53.8572V59.572H60.5715V52.8577ZM63.9285 69.6433H70.6428V62.929H63.9285V69.6433ZM63.9285 59.572H70.6428V52.8577H63.9285V59.572ZM63.9285 42.7861V49.5005H70.6428V42.7861H63.9285Z" fill="white"/>
</svg>
