<svg width="100" height="100" viewBox="0 0 100 100" fill="none" xmlns="http://www.w3.org/2000/svg">
<path fill-rule="evenodd" clip-rule="evenodd" d="M50 100C77.6142 100 100 77.6147 100 50.0005C100 22.3863 77.6142 0.000488281 50 0.000488281C22.3858 0.000488281 0 22.3863 0 50.0005C0 77.6147 22.3858 100 50 100ZM74.4167 37.3507C69.8639 40.0837 67.6094 43.7903 67.6386 48.7084C67.6386 48.7153 67.6383 48.7279 67.6378 48.7461C67.6197 49.3922 67.406 57.013 76 61.018C74.3511 65.9505 68.6893 76.9044 62.1009 76.9982C60.2557 76.9982 58.7804 76.4362 57.2593 75.8568C55.6408 75.2403 53.9705 74.604 51.7476 74.604C49.3445 74.604 47.5347 75.2811 45.8391 75.9155C44.3996 76.454 43.0425 76.9617 41.4747 76.9982C34.9446 77.1929 28.6845 65.1429 26.9481 60.2248C25.6494 56.4893 25 52.8621 25 49.3502C25 37.466 33.033 31.6249 40.5918 31.5095C42.6902 31.5095 45.1142 32.3758 47.1848 33.1158C48.7284 33.6674 50.0756 34.1489 50.9451 34.1489C51.6479 34.1489 52.7947 33.7302 54.2015 33.2167C56.65 32.3229 59.8862 31.1416 62.9399 31.3797C68.018 31.7619 71.8704 33.745 74.4167 37.3507ZM63.227 17.0329C63.3387 18.4805 63.6417 22.4055 59.9704 26.7141C57.3146 29.7788 54.0897 31.5744 50.5584 31.3076C50.2592 27.6082 51.6528 24.3271 54.024 21.6734C56.1764 19.1999 59.9558 17.188 63.2245 17.0005L63.227 17.0329Z" fill="white"/>
</svg>
