<svg width="100" height="100" viewBox="0 0 100 100" fill="none" xmlns="http://www.w3.org/2000/svg">
<path fill-rule="evenodd" clip-rule="evenodd" d="M50 100C77.6142 100 100 77.6147 100 50.0005C100 22.3863 77.6142 0.000488281 50 0.000488281C22.3858 0.000488281 0 22.3863 0 50.0005C0 77.6147 22.3858 100 50 100ZM20.4851 40.7948C37.3649 25.0719 63.6283 25.0662 80.5148 40.7948C81.1496 41.386 81.162 42.3871 80.5491 43.0004L77.2856 46.261C76.7004 46.8455 75.7587 46.8589 75.1506 46.2974C61.2398 33.4637 39.7582 33.4665 25.8502 46.2974C25.2421 46.8589 24.3004 46.8464 23.7152 46.261L20.4517 43.0004C19.8379 42.3871 19.8503 41.386 20.4851 40.7948ZM44.3999 65.8576C44.3999 62.4647 47.1306 59.7148 50.4999 59.7148C53.8692 59.7148 56.5999 62.4647 56.5999 65.8576C56.5999 69.2506 53.8692 72.0005 50.4999 72.0005C47.1306 72.0005 44.3999 69.2506 44.3999 65.8576ZM31.1829 51.6916C42.1563 41.9187 58.8312 41.9082 69.8169 51.6916C70.4736 52.2762 70.4956 53.2936 69.8703 53.9136L66.5877 57.176C66.0159 57.7452 65.0951 57.7827 64.4861 57.2528C56.5037 50.3028 44.5143 50.2874 36.5128 57.2528C35.9038 57.7827 34.9831 57.7443 34.4112 57.176L31.1286 53.9136C30.5043 53.2936 30.5253 52.2771 31.1829 51.6916Z" fill="white"/>
</svg>
